<?xml version="1.0" encoding="UTF-8"?>
<!-- (c) Carrd Inc. All rights reserved. All logos and trademarks are property of their respective owners. -->
<svg xmlns="http://www.w3.org/2000/svg" version="1.1" xmlns:xlink="http://www.w3.org/1999/xlink" viewBox="0 0 40 40" display="none" width="0" height="0">
	<symbol id="cart-alt" viewBox="0 0 40 40"><path d="M34.4,23.1c-0.2,0.3-0.5,0.4-0.8,0.4L12.2,26c0.2,0.8,0.3,1.3,0.3,1.4c0,0.2-0.2,0.7-0.5,1.3h18.8 c0.4,0,0.7,0.1,0.9,0.4c0.3,0.3,0.4,0.6,0.4,0.9c0,0.4-0.1,0.7-0.4,0.9c-0.3,0.3-0.6,0.4-0.9,0.4h-1.3H11.2H9.9 c-0.4,0-0.7-0.1-0.9-0.4c-0.3-0.3-0.4-0.6-0.4-0.9c0-0.2,0.1-0.4,0.2-0.6c0.1-0.3,0.2-0.5,0.3-0.7c0.1-0.2,0.3-0.5,0.4-0.8 c0.2-0.3,0.3-0.5,0.3-0.6l-3.6-18H2c-0.4,0-0.7-0.1-0.9-0.4C0.8,8.7,0.7,8.4,0.7,8c0-0.4,0.1-0.7,0.4-0.9C1.3,6.8,1.6,6.7,2,6.7h5.2 c0.2,0,0.4,0,0.6,0.1C8,6.9,8.1,7,8.2,7.1c0.1,0.1,0.2,0.3,0.3,0.5C8.6,7.9,8.6,8,8.7,8.2c0,0.1,0.1,0.3,0.1,0.6 c0,0.3,0.1,0.4,0.1,0.5h24.6c0.4,0,0.7,0.1,0.9,0.4c0.3,0.3,0.4,0.6,0.4,0.9v11.6C34.8,22.5,34.6,22.8,34.4,23.1z M32.5,11.5 c-0.1-0.1-0.1-0.1-0.5-0.1c-3.6,0-22.7,0-22.7,0l2.4,12.2c0,0,17.4-1.9,20.5-2.2c0.3,0,0.2-0.1,0.3-0.2c0.1-0.1,0.1-0.1,0.1-0.4 c0-1.5,0-7.3,0-8.9C32.6,11.7,32.6,11.6,32.5,11.5z M31.4,32.2c0.5,0.5,0.8,1.1,0.8,1.9c0,0.7-0.3,1.3-0.8,1.9 c-0.5,0.5-1.1,0.8-1.8,0.8c-0.7,0-1.3-0.3-1.8-0.8c-0.5-0.5-0.8-1.1-0.8-1.9c0-0.7,0.3-1.3,0.8-1.9c0.5-0.5,1.1-0.8,1.8-0.8 C30.2,31.4,30.8,31.7,31.4,32.2z M13,32.2c0.5,0.5,0.8,1.1,0.8,1.9c0,0.7-0.3,1.3-0.8,1.9c-0.5,0.5-1.1,0.8-1.8,0.8 c-0.7,0-1.3-0.3-1.8-0.8c-0.5-0.5-0.8-1.1-0.8-1.9c0-0.7,0.3-1.3,0.8-1.9c0.5-0.5,1.1-0.8,1.8-0.8C11.9,31.4,12.5,31.7,13,32.2z" /></symbol>
	<symbol id="form" viewBox="0 0 40 40"><path d="M39.3,14.8L25,29.1c-0.6,0.6-3.7,2-3.9,1.9c-0.1-0.1,1.2-3.3,1.8-3.9l14.3-14.3 c0.6-0.6,1.5-0.6,2.1,0C39.9,13.3,39.9,14.3,39.3,14.8z M12.5,28.7h6.3c0.6,0,1.2,0.5,1.2,1.2s-0.5,1.2-1.2,1.2h-6.3 c-0.6,0-1.2-0.5-1.2-1.2S11.9,28.7,12.5,28.7z M21.1,25.8h-8.6c-0.6,0-1.2-0.5-1.2-1.2s0.5-1.2,1.2-1.2h10.8l-1.9,1.9 C21.4,25.5,21.2,25.6,21.1,25.8z M12.5,15.3c-0.6,0-1.2-0.5-1.2-1.2s0.5-1.2,1.2-1.2h6.4c0.6,0,1.2,0.5,1.2,1.2s-0.5,1.2-1.2,1.2 H12.5z M28.3,18.5l-2.1,2.1H12.5c-0.6,0-1.2-0.5-1.2-1.2s0.5-1.2,1.2-1.2h15C27.9,18.2,28.1,18.3,28.3,18.5z M31.5,15.2H24 c-0.4,0-0.9-0.2-1.2-0.6c-0.3-0.3-0.5-0.8-0.5-1.2V5.9H8.5v28.2l23-0.1v-8.3l2.3-2.3v11.2c0,0.4-0.2,0.9-0.5,1.2 c-0.3,0.3-0.8,0.6-1.2,0.6H8c-0.4,0-0.9-0.2-1.2-0.6c-0.3-0.3-0.5-0.8-0.5-1.2V5.3c0-0.4,0.2-0.9,0.5-1.2C7.1,3.7,7.6,3.5,8,3.5 h16.1c0.4,0,1,0.1,1.6,0.3c0.5,0.2,1.1,0.6,1.4,0.9l5.4,5.8c0.3,0.3,0.6,0.8,0.9,1.4c0.1,0.4,0.2,0.8,0.3,1.1L31.5,15.2L31.5,15.2z M31,12.1l-5.6-5.8C25.2,6.3,25,6.2,24.7,6v6.9h6.7C31.3,12.6,31.2,12.4,31,12.1z"/></symbol>
	<symbol id="arrow-right-light" viewBox="0 0 40 40"><path d="M34.1,19.9c0,0.3-0.1,0.3-0.1,0.4L21.3,33.1c-0.1,0.1-0.1,0.1-0.4,0.1c-0.3,0-0.3-0.1-0.4-0.1L19,31.6 c-0.1-0.1-0.1-0.1-0.1-0.4s0.1-0.3,0.1-0.4l9.2-9.2H5.8c-0.1,0-0.2,0-0.2,0c0,0,0,0,0,0c-0.1-0.1-0.1-0.2-0.1-0.4v-2.5 c0-0.2,0.1-0.4,0.1-0.5c0,0,0.1,0,0.2,0h22.4L19,9c-0.1-0.1-0.1-0.1-0.1-0.4c0-0.3,0.1-0.3,0.1-0.4l1.5-1.5c0.1-0.1,0.1-0.1,0.4-0.1 c0.3,0,0.3,0.1,0.4,0.1L34,19.5C34,19.6,34.1,19.6,34.1,19.9z"/></symbol>
	<symbol id="phone" viewBox="0 0 40 40"><path d="M34.8,28.8c0,0.4-0.1,0.8-0.2,1.5c-0.1,0.6-0.2,1.1-0.5,1.4c-0.4,0.7-1.2,1.4-2.6,2.2C30.2,34.7,29,35,27.7,35 c-0.4,0-0.7,0-1.1-0.1c-0.4,0-0.7-0.1-1.2-0.2c-0.5-0.1-0.8-0.2-0.9-0.4c-0.2-0.1-0.6-0.2-1.2-0.5c-0.6-0.2-0.9-0.4-1.1-0.4 c-1.4-0.5-2.6-1.1-3.6-1.8c-1.8-1.1-3.6-2.6-5.5-4.4c-1.9-1.9-3.4-3.7-4.4-5.5C8,20.8,7.4,19.5,7,18.2c0-0.1-0.1-0.5-0.4-1.1 C6.4,16.5,6,16.2,6,16c-0.1-0.2-0.2-0.6-0.4-0.9c-0.1-0.5-0.2-0.8-0.2-1.2s-0.1-0.7-0.1-1.1c0-1.3,0.4-2.6,1.1-3.9 c0.8-1.5,1.5-2.5,2.2-2.7C9,6.1,9.4,5.9,10,5.8c0.6-0.1,1.1-0.2,1.5-0.2c0.2,0,0.4,0,0.5,0.1c0.2,0.1,0.6,0.6,1.1,1.5 c0.1,0.2,0.4,0.6,0.6,1.2c0.2,0.5,0.5,0.9,0.7,1.3c0.2,0.4,0.5,0.8,0.7,1.2c0,0,0.1,0.2,0.4,0.5c0.2,0.2,0.4,0.6,0.5,0.7 c0.1,0.2,0.1,0.4,0.1,0.6c0,0.2-0.2,0.6-0.6,1.1c-0.4,0.5-0.8,0.8-1.3,1.2s-0.9,0.7-1.3,1.1c-0.4,0.4-0.6,0.7-0.6,0.9 c0,0.1,0,0.2,0.1,0.5c0.1,0.2,0.1,0.4,0.2,0.5c0,0.1,0.1,0.2,0.4,0.5c0.1,0.2,0.2,0.4,0.2,0.4c1.1,1.9,2.2,3.5,3.6,4.9 c1.4,1.4,3,2.6,4.9,3.6c0,0,0.1,0.1,0.4,0.2c0.2,0.1,0.4,0.2,0.5,0.4c0.1,0,0.2,0.1,0.5,0.2c0.2,0.1,0.4,0.1,0.5,0.1 c0.2,0,0.6-0.2,0.9-0.6c0.4-0.4,0.7-0.8,1.1-1.3c0.4-0.5,0.7-0.9,1.2-1.3c0.5-0.4,0.8-0.6,1.1-0.6c0.2,0,0.4,0,0.6,0.1 c0.2,0.1,0.5,0.2,0.7,0.5c0.4,0.2,0.5,0.4,0.5,0.4c0.4,0.2,0.7,0.5,1.2,0.7c0.4,0.2,0.8,0.5,1.3,0.7c0.5,0.2,0.8,0.5,1.2,0.6 c0.9,0.5,1.5,0.8,1.6,1.1C34.8,28.5,34.8,28.6,34.8,28.8L34.8,28.8z"/></symbol>
	<symbol id="email-alt" viewBox="0 0 40 40"><path d="M34.9,30.5V15.6c-0.4,0.4-0.8,0.9-1.4,1.2c-3.4,2.7-6.2,4.8-8.2,6.6c-0.6,0.5-1.1,0.9-1.6,1.2c-0.4,0.3-0.9,0.6-1.7,0.9 c-0.7,0.3-1.4,0.5-2,0.5l0,0c-0.6,0-1.2-0.2-2-0.5c-0.7-0.3-1.2-0.6-1.7-0.9c-0.4-0.3-0.9-0.7-1.6-1.2c-2.1-1.7-4.8-3.8-8.2-6.6 c-0.5-0.4-0.9-0.8-1.4-1.2v14.9c0,0.2,0.1,0.3,0.2,0.4C5.7,31,5.9,31.1,6,31.1h28.4c0.2,0,0.3-0.1,0.4-0.2 C34.8,30.8,34.9,30.7,34.9,30.5L34.9,30.5z M34.9,10.2V9.7c0,0,0-0.1,0-0.2c0-0.1,0-0.2-0.1-0.2c-0.1,0-0.1,0-0.1-0.2 c0-0.1-0.1-0.2-0.2-0.1c-0.1,0-0.2,0-0.3,0H5.8C5.6,8.9,5.4,9,5.3,9.1C5.2,9.2,5.1,9.3,5.1,9.5c0,2.2,0.9,4,2.8,5.5 c2.5,2,5.1,4,7.7,6.1c0.1,0.1,0.3,0.2,0.7,0.5c0.4,0.3,0.6,0.5,0.9,0.7c0.2,0.2,0.5,0.4,0.8,0.6c0.3,0.2,0.7,0.4,0.9,0.5 c0.3,0.1,0.6,0.2,0.8,0.2l0,0c0.2,0,0.5-0.1,0.8-0.2c0.3-0.1,0.6-0.3,0.9-0.5c0.3-0.2,0.6-0.4,0.8-0.6c0.2-0.2,0.5-0.4,0.9-0.7 c0.4-0.3,0.6-0.5,0.6-0.5c2.7-2.1,5.3-4.2,7.7-6.1c0.7-0.5,1.4-1.2,2-2.2C34.6,11.8,34.9,11,34.9,10.2L34.9,10.2z M37.3,9.5v21 c0,0.8-0.3,1.6-0.9,2.2s-1.4,0.9-2.2,0.9H5.8c-0.8,0-1.6-0.3-2.2-0.9c-0.6-0.6-0.9-1.4-0.9-2.2v-21c0-0.8,0.3-1.6,0.9-2.2 s1.4-0.9,2.2-0.9h28.4c0.8,0,1.6,0.3,2.2,0.9S37.3,8.7,37.3,9.5z"/></symbol>
	<symbol id="cancel-light" viewBox="0 0 40 40"><path d="M7.6,30.5l10.3-10.3L7.6,9.9c-0.2-0.2-0.2-0.5,0-0.7L9,7.8c0.2-0.2,0.5-0.2,0.7,0L20,18L30.3,7.8c0.2-0.2,0.5-0.2,0.7,0 l1.4,1.4c0.2,0.2,0.2,0.5,0,0.7L22.2,20.2l10.3,10.3c0.2,0.2,0.2,0.5,0,0.7L31,32.6c-0.2,0.2-0.5,0.2-0.7,0L20,22.4L9.7,32.6 c-0.2,0.2-0.5,0.2-0.7,0l-1.5-1.5C7.4,31,7.4,30.6,7.6,30.5z"/></symbol>
	<symbol id="check" viewBox="0 0 40 40"><path d="M37.9,10.6l-3.2-3.2c-0.4-0.4-1-0.7-1.6-0.7c-0.6,0-1.2,0.2-1.6,0.7L15.9,23l-7-7c-0.4-0.4-1-0.7-1.6-0.7S6.1,15.6,5.6,16 l-3.2,3.2c-0.4,0.4-0.7,1-0.7,1.6S2,22,2.4,22.5l8.6,8.6l3.2,3.2c0.4,0.4,1,0.7,1.6,0.7c0.6,0,1.2-0.2,1.6-0.7l3.2-3.2l17.2-17.2 c0.4-0.4,0.7-1,0.7-1.6C38.6,11.6,38.4,11.1,37.9,10.6z"/></symbol>
	<symbol id="email" viewBox="0 0 40 40"><path d="M37.3,15.3v15.3c0,0.8-0.3,1.6-0.9,2.2c-0.6,0.6-1.4,0.9-2.2,0.9H5.8c-0.8,0-1.6-0.3-2.2-0.9s-0.9-1.4-0.9-2.2V15.3 c0.5,0.6,1.2,1.1,2,1.7c4.7,3.1,7.9,5.4,9.6,6.7c0.7,0.5,1.4,0.9,1.8,1.2c0.4,0.3,1,0.6,1.9,0.9c0.7,0.3,1.5,0.5,2.1,0.5l0,0 c0.6,0,1.4-0.2,2.1-0.5c0.7-0.3,1.4-0.6,1.9-0.9c0.4-0.3,1-0.7,1.8-1.2c2.2-1.6,5.4-3.8,9.6-6.7C36.1,16.5,36.7,15.9,37.3,15.3 L37.3,15.3z M37.3,9.6c0,1-0.3,2-0.9,2.9c-0.6,0.9-1.5,1.8-2.4,2.4c-4.9,3.3-7.9,5.4-9,6.2c-0.1,0.1-0.4,0.3-0.8,0.6 c-0.4,0.3-0.7,0.5-1,0.7c-0.3,0.2-0.6,0.4-1,0.6c-0.4,0.2-0.7,0.4-1.1,0.5c-0.4,0.1-0.6,0.2-0.9,0.2l0,0c-0.3,0-0.6-0.1-0.9-0.2 c-0.3-0.1-0.7-0.3-1.1-0.5c-0.4-0.2-0.7-0.4-1-0.6c-0.3-0.2-0.6-0.4-1-0.7c-0.4-0.3-0.7-0.5-0.8-0.6c-1.1-0.8-2.8-2-5.1-3.5 c-2.3-1.6-3.3-2.4-3.7-2.7c-0.8-0.5-1.6-1.2-2.3-2.2s-1-1.9-1-2.6c0-1,0.3-1.9,0.8-2.5c0.5-0.6,1.2-1,2.3-1h28.4 c0.8,0,1.6,0.3,2.2,0.9C37.1,8.1,37.3,8.8,37.3,9.6L37.3,9.6z"/></symbol>
</svg>
